<?xml version="1.0" encoding="UTF-8" standalone="no"?>
<!DOCTYPE svg PUBLIC "-//W3C//DTD SVG 1.1//EN" "http://www.w3.org/Graphics/SVG/1.1/DTD/svg11.dtd">
<svg xmlns="http://www.w3.org/2000/svg" version="1.1" viewBox="0.00 0.00 206.00 59.00">
<g stroke-width="2.90" fill="none" stroke-linecap="butt">
<path stroke="#010d18" vector-effect="non-scaling-stroke" d="
  M 198.03 49.10
  Q 199.39 48.24 200.58 46.79
  A 0.36 0.36 0.0 0 0 200.31 46.20
  Q 199.90 46.19 199.48 46.14
  Q 198.70 46.06 198.95 44.83
  Q 199.08 44.21 199.22 43.52
  A 5.96 5.93 51.2 0 0 199.33 42.49
  Q 199.48 33.28 199.50 16.78
  Q 199.50 16.42 199.30 16.30
  Q 199.08 16.16 198.76 16.25"
/>
<path stroke="#01192b" vector-effect="non-scaling-stroke" d="
  M 198.76 16.25
  Q 198.78 16.13 198.78 15.98
  A 0.77 0.76 24.8 0 0 198.58 15.44
  L 191.97 8.39
  A 1.07 1.04 -21.2 0 0 191.20 8.06
  Q 107.96 7.74 23.75 7.96
  Q 17.22 7.97 10.68 8.35"
/>
<path stroke="#010d18" vector-effect="non-scaling-stroke" d="
  M 10.68 8.35
  Q 10.41 8.23 10.10 7.46"
/>
<path stroke="#01192b" vector-effect="non-scaling-stroke" d="
  M 10.10 7.46
  Q 11.07 6.32 12.50 6.33
  Q 104.61 6.70 190.72 6.41
  A 3.03 3.02 -21.2 0 1 192.99 7.41
  L 200.65 15.86
  A 2.88 2.86 24.1 0 1 201.39 17.78
  L 201.39 45.56
  A 0.11 0.10 -0.0 0 0 201.50 45.66
  L 201.78 45.66
  A 0.22 0.22 0.0 0 0 202.00 45.44
  L 202.00 16.53
  A 1.53 1.52 23.6 0 0 201.59 15.49
  L 192.47 5.81
  A 2.20 2.19 -21.6 0 0 190.87 5.12
  L 12.23 5.12
  A 2.36 2.34 24.9 0 0 10.73 5.66
  Q 8.59 7.48 6.29 10.67
  A 0.73 0.33 -24.4 0 1 6.22 10.75
  L 2.13 14.97
  A 3.03 3.02 -23.1 0 0 1.28 17.07
  L 1.28 44.38
  A 1.51 1.47 23.1 0 0 1.72 45.43
  L 8.44 52.15
  A 3.34 3.31 -22.3 0 0 10.79 53.12
  L 193.60 53.12
  A 1.34 1.27 29.2 0 0 194.23 52.96
  Q 196.61 51.67 198.03 49.10"
/>
<path stroke="#011c2f" vector-effect="non-scaling-stroke" d="
  M 10.10 7.46
  L 2.87 15.55
  A 3.28 3.27 66.0 0 0 2.04 17.73
  L 2.04 44.19
  A 1.33 1.32 -67.9 0 0 2.44 45.14
  L 9.23 51.94
  A 1.69 1.67 -22.2 0 0 10.42 52.43
  L 127.45 52.25
  A 11.92 11.61 -50.5 0 0 129.81 51.99
  Q 134.11 51.07 135.26 51.11
  Q 146.59 51.51 154.64 51.45
  C 156.40 51.43 157.97 51.85 160.08 52.28
  A 4.58 4.55 50.9 0 0 161.03 52.38
  L 193.16 52.44
  A 1.64 1.63 25.9 0 0 194.16 52.10
  L 198.03 49.10"
/>
<path stroke="#011c2f" vector-effect="non-scaling-stroke" d="
  M 10.68 8.35
  Q 10.38 9.21 11.72 9.02
  Q 12.86 8.86 13.32 8.86
  Q 101.59 8.94 190.18 8.84
  A 3.10 3.08 67.5 0 1 192.41 9.77
  L 198.76 16.25"
/>
<path stroke="#011c2f" vector-effect="non-scaling-stroke" d="
  M 5.27 45.18
  A 0.20 0.20 0.0 0 1 5.24 45.14
  L 4.17 43.28
  A 0.20 0.20 0.0 0 0 3.86 43.24
  L 3.38 43.71
  A 0.20 0.20 0.0 0 0 3.38 43.99
  L 9.98 50.60
  A 0.20 0.20 0.0 0 0 10.12 50.66
  L 125.32 50.66
  A 0.20 0.20 0.0 0 0 125.52 50.46
  L 125.52 50.18
  A 0.20 0.20 0.0 0 0 125.32 49.98
  L 10.15 49.98
  A 0.20 0.20 0.0 0 1 10.01 49.92
  L 5.27 45.18"
/>
<path stroke="#011c2f" vector-effect="non-scaling-stroke" d="
  M 183.9500 50.3210
  A 0.32 0.32 0.0 0 0 183.6311 49.9999
  L 160.7713 49.9201
  A 0.32 0.32 0.0 0 0 160.4501 50.2390
  L 160.4500 50.2790
  A 0.32 0.32 0.0 0 0 160.7689 50.6001
  L 183.6287 50.6799
  A 0.32 0.32 0.0 0 0 183.9499 50.3610
  L 183.9500 50.3210"
/>
</g>

<g>
<path fill="#012842" d="
  M 10.10 7.46
  L 2.87 15.55
  A 3.28 3.27 66.0 0 0 2.04 17.73
  L 2.04 44.19
  A 1.33 1.32 -67.9 0 0 2.44 45.14
  L 9.23 51.94
  A 1.69 1.67 -22.2 0 0 10.42 52.43
  L 127.45 52.25
  A 11.92 11.61 -50.5 0 0 129.81 51.99
  Q 134.11 51.07 135.26 51.11
  Q 146.59 51.51 154.64 51.45
  C 156.40 51.43 157.97 51.85 160.08 52.28
  A 4.58 4.55 50.9 0 0 161.03 52.38
  L 193.16 52.44
  A 1.64 1.63 25.9 0 0 194.16 52.10
  L 198.03 49.10
  Q 196.61 51.67 194.23 52.96
  A 1.34 1.27 29.2 0 1 193.60 53.12
  L 10.79 53.12
  A 3.34 3.31 -22.3 0 1 8.44 52.15
  L 1.72 45.43
  A 1.51 1.47 23.1 0 1 1.28 44.38
  L 1.28 17.07
  A 3.03 3.02 -23.1 0 1 2.13 14.97
  L 6.22 10.75
  A 0.73 0.33 -24.4 0 0 6.29 10.67
  Q 8.59 7.48 10.73 5.66
  A 2.36 2.34 24.9 0 1 12.23 5.12
  L 190.87 5.12
  A 2.20 2.19 -21.6 0 1 192.47 5.81
  L 201.59 15.49
  A 1.53 1.52 23.6 0 1 202.00 16.53
  L 202.00 45.44
  A 0.22 0.22 0.0 0 1 201.78 45.66
  L 201.50 45.66
  A 0.11 0.10 0.0 0 1 201.39 45.56
  L 201.39 17.78
  A 2.88 2.86 24.1 0 0 200.65 15.86
  L 192.99 7.41
  A 3.03 3.02 -21.2 0 0 190.72 6.41
  Q 104.61 6.70 12.50 6.33
  Q 11.07 6.32 10.10 7.46
  Z"
/>
<path fill="#010f1b" d="
  M 10.10 7.46
  Q 10.41 8.23 10.68 8.35
  Q 10.38 9.21 11.72 9.02
  Q 12.86 8.86 13.32 8.86
  Q 101.59 8.94 190.18 8.84
  A 3.10 3.08 67.5 0 1 192.41 9.77
  L 198.76 16.25
  Q 199.08 16.16 199.30 16.30
  Q 199.50 16.42 199.50 16.78
  Q 199.48 33.28 199.33 42.49
  A 5.96 5.93 51.2 0 1 199.22 43.52
  Q 199.08 44.21 198.95 44.83
  Q 198.70 46.06 199.48 46.14
  Q 199.90 46.19 200.31 46.20
  A 0.36 0.36 0.0 0 1 200.58 46.79
  Q 199.39 48.24 198.03 49.10
  L 194.16 52.10
  A 1.64 1.63 25.9 0 1 193.16 52.44
  L 161.03 52.38
  A 4.58 4.55 50.9 0 1 160.08 52.28
  C 157.97 51.85 156.40 51.43 154.64 51.45
  Q 146.59 51.51 135.26 51.11
  Q 134.11 51.07 129.81 51.99
  A 11.92 11.61 -50.5 0 1 127.45 52.25
  L 10.42 52.43
  A 1.69 1.67 -22.2 0 1 9.23 51.94
  L 2.44 45.14
  A 1.33 1.32 -67.9 0 1 2.04 44.19
  L 2.04 17.73
  A 3.28 3.27 66.0 0 1 2.87 15.55
  L 10.10 7.46
  Z
  M 5.27 45.18
  A 0.20 0.20 0.0 0 1 5.24 45.14
  L 4.17 43.28
  A 0.20 0.20 0.0 0 0 3.86 43.24
  L 3.38 43.71
  A 0.20 0.20 0.0 0 0 3.38 43.99
  L 9.98 50.60
  A 0.20 0.20 0.0 0 0 10.12 50.66
  L 125.32 50.66
  A 0.20 0.20 0.0 0 0 125.52 50.46
  L 125.52 50.18
  A 0.20 0.20 0.0 0 0 125.32 49.98
  L 10.15 49.98
  A 0.20 0.20 0.0 0 1 10.01 49.92
  L 5.27 45.18
  Z
  M 183.9500 50.3210
  A 0.32 0.32 0.0 0 0 183.6311 49.9999
  L 160.7713 49.9201
  A 0.32 0.32 0.0 0 0 160.4501 50.2390
  L 160.4500 50.2790
  A 0.32 0.32 0.0 0 0 160.7689 50.6001
  L 183.6287 50.6799
  A 0.32 0.32 0.0 0 0 183.9499 50.3610
  L 183.9500 50.3210
  Z"
/>
<path fill="#012842" d="
  M 198.76 16.25
  L 192.41 9.77
  A 3.10 3.08 67.5 0 0 190.18 8.84
  Q 101.59 8.94 13.32 8.86
  Q 12.86 8.86 11.72 9.02
  Q 10.38 9.21 10.68 8.35
  Q 17.22 7.97 23.75 7.96
  Q 107.96 7.74 191.20 8.06
  A 1.07 1.04 -21.2 0 1 191.97 8.39
  L 198.58 15.44
  A 0.77 0.76 24.8 0 1 198.78 15.98
  Q 198.78 16.13 198.76 16.25
  Z"
/>
</g>
<g>
<path fill="#012842" d="
  M 5.27 45.18
  L 10.01 49.92
  A 0.20 0.20 0.0 0 0 10.15 49.98
  L 125.32 49.98
  A 0.20 0.20 0.0 0 1 125.52 50.18
  L 125.52 50.46
  A 0.20 0.20 0.0 0 1 125.32 50.66
  L 10.12 50.66
  A 0.20 0.20 0.0 0 1 9.98 50.60
  L 3.38 43.99
  A 0.20 0.20 0.0 0 1 3.38 43.71
  L 3.86 43.24
  A 0.20 0.20 0.0 0 1 4.17 43.28
  L 5.24 45.14
  A 0.20 0.20 0.0 0 0 5.27 45.18
  Z"
/>
<rect fill="#012842" x="-11.75" y="-0.34" transform="translate(172.20,50.30) rotate(0.2)" width="23.50" height="0.68" rx="0.32"/>
</g>
</svg>
