<?xml version="1.0" encoding="utf-8"?>
<!-- Generator: Adobe Illustrator 25.4.1, SVG Export Plug-In . SVG Version: 6.00 Build 0)  -->
<svg version="1.1" id="Layer_1" xmlns="http://www.w3.org/2000/svg" xmlns:xlink="http://www.w3.org/1999/xlink" x="0px" y="0px"
	 viewBox="0 0 460.2 547.5" style="enable-background:new 0 0 460.2 547.5;" xml:space="preserve">
<style type="text/css">
	.st0{fill:none;stroke:#01485D;stroke-width:2.9;}
	.st1{fill:none;stroke:#012F4A;stroke-width:2.9;}
	.st2{fill:none;stroke:#021826;stroke-width:2.9;}
	.st3{fill:none;stroke:#010F1C;stroke-width:2.9;}
	.st4{fill:none;stroke:#014B63;stroke-width:2.9;}
	.st5{fill:none;stroke:#016A91;stroke-width:2.9;}
	.st6{fill:none;stroke:#003250;stroke-width:2.9;}
	.st7{fill:none;stroke:#011B2C;stroke-width:2.9;}
	.st8{fill:none;stroke:#002842;stroke-width:2.9;}
	.st9{fill:none;stroke:#01253C;stroke-width:2.9;}
	.st10{fill:none;stroke:#01314C;stroke-width:2.9;}
	.st11{fill:none;stroke:#013B5A;stroke-width:2.9;}
	.st12{fill:none;stroke:#02546D;stroke-width:2.9;}
	.st13{fill:#0183A4;}
	.st14{fill:#001221;}
	.st15{fill:#00517E;}
	.st16{fill:#010C16;}
	.st17{fill:#022436;}
	.st18{fill:#003E62;}
	.st19{opacity:0.7;fill:#010C16;enable-background:new    ;}
</style>
<g>
	<path vector-effect="non-scaling-stroke" class="st0" d="M95.7,12.5l-54.5,0.4c-0.4,0-0.8,0.2-1,0.5L14.1,41.1"/>
	<path vector-effect="non-scaling-stroke" class="st1" d="M14.1,41.1l0.2,469.2c0,0.4,0.1,0.7,0.4,1l5.5,6.2"/>
	<path vector-effect="non-scaling-stroke" class="st0" d="M20.1,517.5L42,540.6c0.4,0.4,1,0.7,1.5,0.7l55.4,0"/>
	<path vector-effect="non-scaling-stroke" class="st2" d="M98.9,541.3c3.4-0.2,6.9-0.8,10.2-0.8c13.5,0.1,26.4,0.4,38.8,1.1
		c4.4,0.3,22.1,0.2,53.2-0.2c13.7-0.2,29.4-0.1,47,0.1c15.9,0.2,35.9-0.6,53.6-0.1c17.4,0.5,29.6-0.2,45-0.2c4.5,0,9.7-0.2,15.7-0.5
		c1.4-0.1,3,0,4.6,0.1c1.7,0.2,3.2,0.3,4.6,0.4"/>
	<path vector-effect="non-scaling-stroke" class="st1" d="M371.4,541.3l51.6-0.1c0.5,0,1.1-0.2,1.5-0.6l26.4-27.2
		c0.6-0.6,1-1.5,0.9-2.4l0-41.8"/>
	<path vector-effect="non-scaling-stroke" class="st3" d="M451.8,469.3l0.6-2.7c0,0,0,0,0,0c0,0,0,0,0,0c0.6,3.5,1,7.9,1,13.2
		c0.1,11.2,0,22.5-0.3,33.7c0,1.3,1,2.4,2.2,2.5c0.3,0,0.5,0,0.8-0.1c0.5-0.2,1.1-0.9,2-2.3"/>
	<path vector-effect="non-scaling-stroke" class="st4" d="M95.9,12.5c0.8,0.4,1.5,0.4,2,0"/>
	<path vector-effect="non-scaling-stroke" class="st4" d="M99.2,12.5c0.7,0.4,1,0.4,1.1,0"/>
	<path vector-effect="non-scaling-stroke" class="st4" d="M100.5,12.5c1.1,0.3,2.4,0.3,3.8,0.2"/>
	<path vector-effect="non-scaling-stroke" class="st5" d="M104.2,12.6c-0.6,1-1.4,1.7-2.4,2.2"/>
	<path vector-effect="non-scaling-stroke" class="st4" d="M101.9,14.9l-58.7-0.2c-0.8,0-1.6,0.3-2.1,0.9L20.7,36.7
		c-0.1,0.1-0.2,0.1-0.2,0.2c-2,1.3-3.4,3-4.1,4.9"/>
	<path vector-effect="non-scaling-stroke" class="st5" d="M16.4,41.8c-0.9,0.7-1.6,0.8-2,0.2c-0.2-0.2-0.3-0.6-0.3-0.9"/>
	<path vector-effect="non-scaling-stroke" class="st6" d="M151.4,12.5l-47.1,0.2"/>
	<path vector-effect="non-scaling-stroke" class="st6" d="M151.6,12.5c0.8,0.3,1.6,0.3,2.3,0"/>
	<path vector-effect="non-scaling-stroke" class="st6" d="M154.1,12.5h16.8"/>
	<path vector-effect="non-scaling-stroke" class="st6" d="M224.7,12.5h50.9"/>
	<path vector-effect="non-scaling-stroke" class="st6" d="M345.9,12.5h8"/>
	<path vector-effect="non-scaling-stroke" class="st6" d="M356.5,12.5l54.1,0.3"/>
	<path vector-effect="non-scaling-stroke" class="st5" d="M410.6,12.8c-0.5,0.6-0.7,1.2-0.6,1.8"/>
	<path vector-effect="non-scaling-stroke" class="st6" d="M409.9,14.6l-308.1,0.3"/>
	<path vector-effect="non-scaling-stroke" class="st6" d="M451.8,469.3l-0.2-77.2"/>
	<path vector-effect="non-scaling-stroke" class="st3" d="M451.6,392.1c1.1-7.1,1.8-12.9,1.8-17.5c0.5-27.8-0.1-64.2,0-91.1
		c0.1-71.8,0.2-149.3,0.2-232.6c0-3.5-0.6-6.6-1.9-9.2"/>
	<path vector-effect="non-scaling-stroke" class="st4" d="M451.6,41.7l-26.5-28c-0.4-0.4-1-0.7-1.5-0.7l-13-0.3"/>
	<path vector-effect="non-scaling-stroke" class="st0" d="M451.6,41.7l0,76.9"/>
	<path vector-effect="non-scaling-stroke" class="st5" d="M451.6,118.6l-0.3,0.4c-0.1,0.2-0.3,0.2-0.5,0.1c0,0,0,0-0.1-0.1
		c-0.1-0.1-0.2-0.2-0.3-0.3c-0.1-0.1-0.2-0.2-0.2-0.1c0,0.1-0.1,0.2-0.2,0.3c0,0-0.1,0-0.1,0c0,0,0,0,0,0l-0.3-2.1"/>
	<path vector-effect="non-scaling-stroke" class="st4" d="M449.6,116.8l-0.2-74.2c0-0.3-0.1-0.7-0.4-0.9l-25.5-26.3
		c-0.5-0.5-1.2-0.8-1.9-0.8l-11.7,0"/>
	<path vector-effect="non-scaling-stroke" class="st6" d="M449.6,116.8l0.1,299.7"/>
	<path vector-effect="non-scaling-stroke" class="st7" d="M449.7,416.5l-2.6-11.2c0-0.1-0.1-0.2-0.2-0.2h-0.3
		c-0.3,0-0.5,0.2-0.5,0.5c0.1,8.7,0.5,18.8,1.2,30.2c0.3,4.9,0,10.3-0.9,16.2c-0.1,0.3-0.1,0.7,0,1c0.3,3.4,1.4,6.5,3.4,9.2"/>
	<path vector-effect="non-scaling-stroke" class="st6" d="M449.7,462.2l0.5,48.2c0,0.7-0.3,1.4-0.7,1.9l-26,26.9
		c-0.4,0.4-1,0.7-1.5,0.7l-41.1,0.1"/>
	<path vector-effect="non-scaling-stroke" class="st7" d="M380.8,539.9c-6.2-0.5-10.5-0.8-12.7-0.8c-42.7-0.1-82.3-0.2-118.9-0.4
		c-6.9,0-13.1-0.8-19.6-0.5c-5.3,0.2-9.9,0.3-13.9,0.3c-45.1-0.1-79.3,0-102.6,0.2c-4.8,0-10.5,0.4-17.2,1.1"/>
	<path vector-effect="non-scaling-stroke" class="st4" d="M96,539.9H43.7c-0.3,0-0.6-0.1-0.9-0.4l-21.4-22.8"/>
	<path vector-effect="non-scaling-stroke" class="st6" d="M21.5,516.7l-4.8-5.6c-0.3-0.3-0.4-0.7-0.4-1.1l0.1-468.2"/>
	<path vector-effect="non-scaling-stroke" class="st3" d="M22.8,301.6c0.7,8.7,0.6,17.3-0.3,25.8"/>
	<path vector-effect="non-scaling-stroke" class="st8" d="M22.5,327.4L22.4,382c0,0,0,0,0,0c0,0,0,0,0,0c0,0,0.1,0,0.1-0.1l0.4-46.5
		"/>
	<path vector-effect="non-scaling-stroke" class="st3" d="M22.9,335.5l0.4,87.3"/>
	<path vector-effect="non-scaling-stroke" class="st8" d="M23.3,422.8c-0.5-6.5-0.8-13-0.7-19.4c0-0.1,0-0.2-0.1-0.3c0,0,0,0,0,0
		c0,0,0,0,0,0c-0.3,5.2-0.3,11.8,0.1,19.8c0.1,1.4,0.3,1.9,0.7,1.5"/>
	<path vector-effect="non-scaling-stroke" class="st3" d="M23.2,424.4c0,0.1,0.1,0.2,0.1,0.3c0.1,0.2,0,0.4-0.2,0.4c0,0,0,0-0.1,0
		c-1.1,0.1-2.2,0.5-3.2,1c-0.2,0.1-0.5,0.1-0.6-0.1c-0.1-0.1-0.1-0.1-0.1-0.1c-0.3-0.2-0.7,0-0.9,0.3c0,0,0,0,0,0
		c-0.8,1.7-1.2,3.1-1.2,4.2c-0.4,6.9-0.4,13.9-0.1,21c0.3,6.7,2.3,11.7,5.9,15"/>
	<path vector-effect="non-scaling-stroke" class="st7" d="M22.8,466.6c-0.9,12.4-1.1,24.6-0.7,36.4c0,0.7,0.3,1.3,0.8,1.8
		c15,15.7,23.7,25,26.3,27.8c1.4,1.6,2.8,2.4,4.1,2.5c3.4,0.1,11,0.2,23,0.3c0.5,0,0.9,0,1.4-0.1c1.9-0.4,3.3-0.5,3.9-0.5
		c10.8,0.3,17.7,0.5,20.7,0.5c75.9-0.1,118.6,0,128.2,0.1c20.2,0.3,63.7-1.1,89.5-0.6c13.3,0.2,27.1,0.2,41.2,0
		c6.6-0.1,15.6,0.4,23.4,0.5"/>
	<path vector-effect="non-scaling-stroke" class="st8" d="M384.4,535c14.6,0.3,24.8,0.4,30.4,0.1c0.6,0,1.1-0.4,1.6-1.1
		c0.6-0.8,1-1.4,1.2-1.6c7.3-6.9,15.3-14.9,23.8-24c1.7-1.8,2-3.3,1.1-5.3c-0.2-0.5-0.7-0.7-1.2-0.5c-0.3,0.1-0.5,0.4-0.5,0.8
		l-0.2,2"/>
	<path vector-effect="non-scaling-stroke" class="st3" d="M440.7,505.4l0-5.6"/>
	<path vector-effect="non-scaling-stroke" class="st8" d="M440.6,499.8c0.9,0.8,1.6,1,2,0.6c0.6-0.7,1-1.6,1-2.8
		c0.2-6.8,0.3-13.6,0.3-20.2c0-0.4-0.2-0.8-0.5-1l0,0c-0.3-0.1-0.6,0-0.7,0.3c0,0,0,0.1,0,0.1l-0.8,4.3c0,0.3,0,0.5,0.1,0.8
		c0.6,1.4,0.9,2.6,0.8,3.6c-0.5,5.3-0.5,9.1,0.2,11.4c0.1,0.4-0.1,0.8-0.4,0.9c-0.3,0.1-0.6,0-0.8-0.3c-0.5-0.8-0.7-2-0.7-3.5
		c0.2-4.2,0.3-8.1,0.4-11.6c0-0.2-0.2-0.4-0.4-0.4c-0.1,0-0.2,0-0.3,0.1c-0.6,0.5-0.9,1.3-0.8,2.5"/>
	<path vector-effect="non-scaling-stroke" class="st3" d="M439.9,484.4c-4.7-23.1-7.3-44.4-7.8-63.8c-0.5-17.4,1.3-35.3,5.6-53.7
		c1.3-5.6,2.6-11.3,3.9-16.9c0.4-1.6,0.6-3.3,0.6-4.9l0.5-16.8"/>
	<path vector-effect="non-scaling-stroke" class="st8" d="M442.7,328.2l0.2,1.7c0,0.3,0.2,0.5,0.5,0.4c0.1,0,0.2-0.1,0.3-0.2
		l0.3-0.3"/>
	<path vector-effect="non-scaling-stroke" class="st3" d="M443.9,329.8l0.3,6.1c0,0.1,0.1,0.2,0.3,0.2c0.1,0,0.1,0,0.2-0.1
		c0.9-1.3,1.3-3,1.4-5.2c0-1.2,0-16,0-44.2c0-4.9,1.2-9.7,0.9-15c-0.4-6.5-0.6-11.1-0.6-13.9c-0.3-62.1-0.3-128.5,0-199.1
		c0-3.4-0.7-6.4-2.2-9.1"/>
	<path vector-effect="non-scaling-stroke" class="st6" d="M444.1,49.6c0-1-0.1-1.8-0.4-2.1c-0.2-0.4-0.7-0.5-1.1-0.2
		c-0.2,0.1-0.4,0.4-0.4,0.7v17.6"/>
	<path vector-effect="non-scaling-stroke" class="st3" d="M442.4,65.5c-0.5-0.4-1.1-0.3-1.7,0.1"/>
	<path vector-effect="non-scaling-stroke" class="st8" d="M440.7,65.6c0-3.1-0.2-6.2-0.5-9.3c-0.4-4.2,0-7,0.4-10.9
		c0-0.4-0.1-0.8-0.3-1.1c-1.9-2.6-3.2-4.2-3.8-4.7c-6.6-5.8-12.7-12-18-18.6c-0.5-0.6-1.2-1-2-1H50.9c-0.6,0-1.3,0.3-1.7,0.8
		c-0.9,1-8.4,8.8-22.5,23.3c-2.7,2.8-1.6,5.7-1.8,9.3c0,0.3-0.2,0.5-0.5,0.5c0,0,0,0,0,0l-0.3,0c-0.4,0-0.7-0.3-0.7-0.7c0,0,0,0,0,0
		l0.4-11.9c0-0.2-0.1-0.3-0.3-0.3c-0.1,0-0.2,0.1-0.3,0.2c-1.1,2.5-1.6,5-1.7,7.4c-0.1,3.2-0.1,21.6,0,55.2
		c0.1,20.8,0.1,39.2,0,55.1c-0.2,52-0.1,85,0.1,99.1c0.4,24.5,0.6,40.3,0.5,47.6c0,0.1,0.1,0.2,0.2,0.2c0,0,0,0,0,0h0
		c0.1,0,0.2-0.1,0.2-0.2l0.3-3.8"/>
	<path vector-effect="non-scaling-stroke" class="st9" d="M440.7,65.6c-0.7,0.3-1.4,0.2-2-0.4c-0.2-0.2-0.4-0.5-0.4-0.9V45.9
		c0-0.9-0.4-1.8-1-2.4c-2.5-2.5-5.2-5.1-8.1-7.7c-4.4-3.9-7.3-8.2-10.9-12.3c-0.7-0.7-1.6-1.2-2.6-1.1c-12.7,0.3-24.3,0.4-34.8,0.3
		c-117.5-0.4-225.1-0.4-322.7-0.1c-2.8,0-5.1-0.3-6.9-0.8c-0.5-0.2-1.1,0-1.4,0.4l-22.3,23c-0.6,0.6-0.9,1.4-0.9,2.2l-0.3,9.1
		c0,0.3-0.2,0.6-0.5,0.6c-0.4,0.1-0.7-0.1-0.7-0.4c-0.1-0.5-0.6-0.7-1.1-0.6c-0.3,0.1-0.6,0.4-0.6,0.8c-0.3,2.7-0.3,5.2-0.2,7.4
		c0.1,2.2,0.2,4.7,0.3,7.5c0.3,29.6-0.4,53.9-0.1,84.6c0.4,39,0.2,80.2-0.7,123.6c-0.1,5.5,0.1,10.8,0.6,15.8
		c0.1,1.2-0.1,3.1-0.6,5.7"/>
	<path vector-effect="non-scaling-stroke" class="st1" d="M442.4,65.5c0.1,14.7,0.2,29.3,0.1,44c0,12.1,0.7,28.1,0.2,39.2
		c-0.2,5.6,0.6,10.8,0.2,16.8c-0.2,3.3-0.3,7.5-0.2,12.6c0.3,16.3,0.3,34.1-0.1,53.2c0,0.3,0,0.7,0.2,1c0.3,0.8,0.3,1.7,0.2,3
		c0,0,0,0,0,0c0,0,0,0,0,0c0-0.1,0.1-0.2,0.2-0.3c0.5-0.6,0.7-1.2,0.7-2c0-61.1,0.1-122.2,0.3-183.3"/>
	<path vector-effect="non-scaling-stroke" class="st9" d="M443.9,329.8l-0.3-42.8c0-0.1,0-0.1-0.1-0.1l-0.5,0
		c-0.1,0-0.1,0.1-0.1,0.1v0l-0.2,41.2"/>
	<path vector-effect="non-scaling-stroke" class="st9" d="M439.9,484.4c-0.3,3.3-0.4,6.7-0.3,10c0.1,2.6,0.4,4.4,1,5.3"/>
	<path vector-effect="non-scaling-stroke" class="st9" d="M440.7,505.4c0,0.9-0.2,1.6-0.6,2c-8,8.7-16.2,17.2-24.7,25.5
		c-0.4,0.4-0.9,0.6-1.5,0.6l-27.8-0.5"/>
	<path vector-effect="non-scaling-stroke" class="st2" d="M386.1,533c-8-0.5-16-0.7-24.1-0.6c-13.8,0.1-20.8,0.1-20.9,0.1
		c-42.4-0.4-83.4-0.5-123-0.5c-30.5,0-64.4-0.6-96,0.1c-0.8,0-7.7,0-20.5,0c-11,0-18.1,0.2-21.2,0.6c-7.2,1-15,0.7-27.5,0.7
		c-0.7,0-1.4-0.3-1.9-0.8L24.3,505c-0.8-0.8-1.2-2-1.1-3.2c0.3-3.9,0.4-8.6,0.2-14c-0.1-3.4-0.1-5.9,0-7.5c0.4-4.3,0.2-8.9-0.6-13.8
		"/>
	<path vector-effect="non-scaling-stroke" class="st9" d="M23.2,424.4l0.1-1.6"/>
	<path vector-effect="non-scaling-stroke" class="st9" d="M22.9,335.5l-0.4-8.1"/>
	<path vector-effect="non-scaling-stroke" class="st10" d="M386.1,533c-0.7,0.5-1.3,1.1-1.8,1.9"/>
	<path vector-effect="non-scaling-stroke" class="st8" d="M22.5,401.6c0.1,0,0.2-4.2,0.2-9.5c0,0,0,0,0,0c0-5.2-0.1-9.5-0.3-9.5
		c-0.1,0-0.2,4.2-0.2,9.5c0,0,0,0,0,0C22.2,397.4,22.3,401.6,22.5,401.6"/>
	<path vector-effect="non-scaling-stroke" class="st2" d="M89.5,34.2c0-0.5-0.4-1-1-1c0,0,0,0,0,0L67,33.5c-0.5,0-0.9,0.4-0.9,1l0,0
		c0,0.5,0.4,1,1,1c0,0,0,0,0,0l21.6-0.2C89,35.2,89.5,34.8,89.5,34.2L89.5,34.2"/>
	<path vector-effect="non-scaling-stroke" class="st2" d="M401.4,35.1l0-1.4c0-0.2-0.1-0.3-0.3-0.3c0,0,0,0,0,0l-21.4-0.3
		c-5.1-0.1-9.2,0.1-9.3,0.4l0,1c-0.1,0.3,4,0.6,9.1,0.7c0.1,0,0.1,0,0.2,0l21.4,0.3C401.2,35.4,401.4,35.3,401.4,35.1"/>
	<path vector-effect="non-scaling-stroke" class="st3" d="M375.3,136.6c0.2-0.1,0.4-0.3,0.3-0.6c0-0.1-0.2-0.3-0.3-0.3
		c-4.1-1.2-8-1.8-12-1.8c-31.6,0.1-63.3-0.6-96.4,0c-17.8,0.3-38.9,0.4-63.5,0.2c-6.1,0-13.1-0.6-18.8-0.5
		c-13.5,0.1-26.7,0.2-39.5,0.2c-20.6,0.1-41-0.8-63.3-0.7c-3.2,0-6,0.4-8.4,1.2c-0.3,0.1-0.5,0.5-0.4,0.8c0,0.1,0.1,0.2,0.2,0.3
		c1.4,1.2,5.4,1.4,7.1,1.4c13.2,0.2,38.4-1,56.8-0.4c13.6,0.4,29.4-0.1,45.3,0.5c3.6,0.1,9.7,0.1,18.2-0.1c6-0.2,15.2,0,27.9,0.5
		c7.3,0.3,18-0.1,31.9-1.2c8.8-0.7,21,0.7,30.5,0.8c20.8,0.2,45.8,0.7,74.8,1.4C369.2,138.4,372.4,137.8,375.3,136.6"/>
	<path vector-effect="non-scaling-stroke" class="st2" d="M55.7,217.9c6.4,1,10.6,1.5,12.4,1.5c17.2,0.2,30.7,0.3,40.4,0.3
		c8.3-0.1,20.4,1,30.8,0.7c13-0.3,29.9,0,39.3,0c58.1-0.1,109.4,0,153.8,0.4c2.1,0,9.8,0,22.9-0.2c11.7-0.1,24,0.6,36.3-1
		c0.4-0.1,0.7-0.5,0.6-0.9c0-0.3-0.3-0.6-0.6-0.6c-10-1.6-20-1.2-36.3-1.5c-8.9-0.2-45.9-0.2-111-0.1c-48.1,0.1-87.2-0.6-135.6-0.8
		c-17.2-0.1-35.5,1.6-53,1.2c-0.1,0-0.3,0.1-0.3,0.2c0,0.2,0,0.3,0,0.4C55.3,217.6,55.5,217.8,55.7,217.9"/>
	<path vector-effect="non-scaling-stroke" class="st2" d="M397.8,234.2c1.3-0.2,2.2-0.6,3-1.3c0.3-0.3,0.3-0.7,0-1
		c-0.1-0.1-0.3-0.2-0.5-0.2l-325.9-0.4"/>
	<path vector-effect="non-scaling-stroke" class="st3" d="M74.4,231.2l-20.5,0.1c-0.2,0-0.3,0.2-0.3,0.4l0,0.4
		c0,0.3,0.2,0.6,0.5,0.6c0,0,0,0,0,0l39.8,1.3c0.1,0,0.1,0.1,0.1,0.1c0,0,0,0,0,0l-1.4,2.4c-0.1,0.2-0.3,0.3-0.5,0.3
		c-12.5-0.5-24.6-0.3-36.2,0.5c-0.3,0-0.5,0.2-0.5,0.5l0,0.3c0,0.5,0.4,1,0.9,1c0,0,0,0,0,0c6.6,0.3,13.3,0.3,20,0
		c6.6-0.3,16.6,1.1,24.3,1.3c36.6,0.8,62.2,0.1,113.5-1c7.5-0.2,18.8,0.5,28.2,0.2c14.2-0.4,26.3-0.4,36.3,0.1
		c26.9,1.1,37.8,0.7,64.9,1.4c8.9,0.2,17.3-1.1,25.1-3.9c1.9-0.7,3.9-0.8,5.9-0.5c7.2,1.3,14.1,2.9,22.5,2c0.7-0.1,1.3-0.8,1.2-1.5
		c0-0.1,0-0.2-0.1-0.3c0-0.1-0.3-0.4-0.7-0.8c-0.4-0.3-0.4-0.8-0.1-1.2l0.5-0.7"/>
	<path vector-effect="non-scaling-stroke" class="st7" d="M74.4,231.2l-9.7,0.4c-0.1,0-0.1,0-0.1,0.1l0,0.3c0,0.2,0.1,0.4,0.3,0.4
		c0,0,0,0,0,0c19.8,0.5,39.6,0.8,59.4,0.9c56.9,0.4,98,0.5,123.1,0.4c3.7,0,7.4,0,11.1,0c43.8,0.1,77.8,0.3,102,0.5
		c17.2,0.2,29.6,0.1,37.2-0.1"/>
	<path vector-effect="non-scaling-stroke" class="st2" d="M119.8,313.6c-13.8-0.2-27.6-0.4-41.3-0.7c-2.4-0.1-7,0.2-13.8,0.8"/>
	<path vector-effect="non-scaling-stroke" class="st3" d="M64.6,313.8L53.9,314c-1,0-1.8,0.9-1.8,1.9c0,0.5,0.3,1.1,0.7,1.4
		c2.9,2.5,6.6,3.7,11.1,3.8c10.9,0.3,22.6,0.6,35,0.9c2.5,0.1,8.4-0.4,17.5-1.5c0.4,0,0.8-0.1,1.2-0.3c2.2-0.9,4-1.2,5.4-0.9
		c6.1,1.4,11.6,2.1,16.6,2.1c32.9-0.1,50.5-0.1,52.9,0c39.7,0.5,69.5,0.6,89.3,0.1c11-0.3,23.3,0.5,35,0.1c1.7-0.1,2.9-0.3,3.7-0.6
		c0.3-0.1,0.4-0.5,0.3-0.8c-0.1-0.2-0.2-0.3-0.4-0.3l-14.8-2.2c-0.1,0-0.2-0.2-0.2-0.3c0-0.1,0.1-0.2,0.2-0.2
		c2.6-0.4,4.7-0.6,6.5-0.6c11.2-0.1,21.1-0.3,29.6-0.6c2.2-0.1,4.2-0.4,5.9-1c0.2-0.1,0.4-0.3,0.3-0.6c-0.1-0.2-0.2-0.3-0.4-0.3
		c-7-0.8-14.7-1.2-23-1.2c-68.4-0.6-131-0.7-188-0.2c-3,0-8.5,0.3-16.6,0.7"/>
	<path vector-effect="non-scaling-stroke" class="st7" d="M64.6,313.8l-11.1,1.1c-0.1,0-0.2,0.1-0.2,0.2c0,0.1,0.1,0.2,0.2,0.2
		c0,0,0,0,0,0c2.2,0.3,4,0.5,5.5,0.5c5.7,0.1,22.7,0.1,51,0c19.1-0.1,33.9,0.6,50.5-0.3c0.3,0,0.5-0.2,0.5-0.5l0-0.4
		c0-0.2-0.1-0.3-0.3-0.3c0,0,0,0,0,0l-40.8-0.7"/>
	<path vector-effect="non-scaling-stroke" class="st2" d="M328.6,336.1l80.3-0.8c0.1,0,0.2-0.1,0.2-0.1c0.2-0.4,0.1-0.7-0.2-1.1
		c-0.1-0.1-0.2-0.2-0.4-0.2c-31.1-1.4-60-1.2-94.5-1.8c-7.2-0.1-24-0.1-50.2,0.1c-3.1,0-7.4,0-12.8-0.2c-26.1-0.6-51.7-0.2-74-0.2
		c-2.9,0-5.9,0.1-8.8,0.3"/>
	<path vector-effect="non-scaling-stroke" class="st9" d="M168.2,332.3L97.8,332"/>
	<path vector-effect="non-scaling-stroke" class="st3" d="M97.8,332c-6.6-0.2-13.8,0.5-20.3-0.6c-0.3,0-0.6-0.1-0.8-0.1
		c-7.1,0.2-16.3,0.4-27.4,0.9c-0.7,0-2.1,0.7-4.1,1.9c-0.2,0.1-0.3,0.4-0.2,0.7c0,0,0,0.1,0.1,0.1l1,1c0.3,0.3,0.7,0.5,1.1,0.6
		c32.2,6.9,64.2,7.2,100.9,8.6c9.3,0.4,23.5,0.2,42.6-0.3c37-1.1,59.8-2,68.3-2.4c18-1,41.3-3.1,69.7-6.2"/>
	<path vector-effect="non-scaling-stroke" class="st8" d="M97.8,332l-44.7,1.4c-0.2,0-0.3,0.2-0.4,0.4l0,0.4c0,0.4,0.3,0.7,0.6,0.7
		c0,0,0,0,0,0c10.6,0,20.4,0.8,31.7,0.8c27.3,0,54.6,0,81.9-0.1"/>
	<path vector-effect="non-scaling-stroke" class="st7" d="M167,335.5l161.6,0.6"/>
	<path vector-effect="non-scaling-stroke" class="st10" d="M168.2,332.3c8.3,0.8,16.7,1,25.2,0.6c0.3,0,0.5,0.2,0.5,0.5
		c0,0,0,0.1,0,0.1l-0.1,0.4c0,0.1-0.1,0.2-0.3,0.2l-26.6,1.4"/>
	<path vector-effect="non-scaling-stroke" class="st5" d="M21.5,516.7c-0.4,0.1-0.9,0.4-1.3,0.9"/>
	<path vector-effect="non-scaling-stroke" class="st1" d="M451.6,392.1l0-273.5"/>
	<path vector-effect="non-scaling-stroke" class="st11" d="M371.4,541.3c1.8-1.4,5-1.8,9.4-1.4"/>
	<path vector-effect="non-scaling-stroke" class="st11" d="M449.7,462.2l0-45.7"/>
	<path vector-effect="non-scaling-stroke" class="st12" d="M96,539.9c2.8,0,3.8,0.4,2.9,1.4"/>
</g>
<g>
	<path class="st13" d="M95.9,12.5c0.8,0.4,1.5,0.4,2,0h1.3c0.7,0.4,1,0.4,1.1,0c0.1,0,0.1,0,0.2,0c1.1,0.3,2.4,0.3,3.8,0.2
		c-0.6,1-1.4,1.7-2.4,2.2l-58.7-0.2c-0.8,0-1.6,0.3-2.1,0.9L20.7,36.7c-0.1,0.1-0.2,0.1-0.2,0.2c-2,1.3-3.4,3-4.1,4.9
		c-0.9,0.7-1.6,0.8-2,0.2c-0.2-0.2-0.3-0.6-0.3-0.9l26.1-27.8c0.3-0.3,0.6-0.5,1-0.5l54.5-0.4C95.8,12.5,95.8,12.5,95.9,12.5z"/>
	<path class="st14" d="M97.9,12.5c-0.6,0.4-1.2,0.4-2,0H97.9z"/>
	<path class="st14" d="M100.3,12.5c-0.1,0.4-0.4,0.4-1.1,0H100.3z"/>
	<path class="st14" d="M151.4,12.5l-47.1,0.2c-1.4,0.2-2.6,0.1-3.8-0.2H151.4z"/>
	<path class="st15" d="M151.6,12.5c0.8,0.3,1.6,0.3,2.3,0c0,0,0.1,0,0.1,0h16.8h53.8h50.9h70.3h8h2.6l54.1,0.3
		c-0.5,0.6-0.7,1.2-0.6,1.8l-308.1,0.3c1-0.5,1.8-1.3,2.4-2.2l47.1-0.2C151.4,12.5,151.5,12.5,151.6,12.5z"/>
	<path class="st14" d="M153.9,12.5c-0.7,0.3-1.5,0.3-2.3,0H153.9z"/>
	<path class="st14" d="M170.9,12.5h-16.8H170.9z"/>
	<path class="st14" d="M275.6,12.5h-50.9H275.6z"/>
	<path class="st14" d="M353.9,12.5h-8H353.9z"/>
	<path class="st13" d="M451.6,41.7l0,76.9l-0.3,0.4c-0.1,0.2-0.3,0.2-0.5,0.1c0,0,0,0-0.1-0.1c-0.1-0.1-0.2-0.2-0.3-0.3
		c-0.1-0.1-0.2-0.2-0.2-0.1c0,0.1-0.1,0.2-0.2,0.3c0,0-0.1,0-0.1,0c0,0,0,0,0,0l-0.3-2.1l-0.2-74.2c0-0.3-0.1-0.7-0.4-0.9
		l-25.5-26.3c-0.5-0.5-1.2-0.8-1.9-0.8l-11.7,0c-0.1-0.7,0.1-1.3,0.6-1.8l13,0.3c0.6,0,1.1,0.3,1.5,0.7L451.6,41.7z"/>
	<path class="st14" d="M101.9,14.9l308.1-0.3l11.7,0c0.7,0,1.4,0.3,1.9,0.8l25.5,26.3c0.2,0.2,0.4,0.6,0.4,0.9l0.2,74.2l0.1,299.7
		l-2.6-11.2c0-0.1-0.1-0.2-0.2-0.2h-0.3c-0.3,0-0.5,0.2-0.5,0.5c0.1,8.7,0.5,18.8,1.2,30.2c0.3,4.9,0,10.3-0.9,16.2
		c-0.1,0.3-0.1,0.7,0,1c0.3,3.4,1.4,6.5,3.4,9.2l0.5,48.2c0,0.7-0.3,1.4-0.7,1.9l-26,26.9c-0.4,0.4-1,0.7-1.5,0.7l-41.1,0.1
		c-6.2-0.5-10.5-0.8-12.7-0.8c-42.7-0.1-82.3-0.2-118.9-0.4c-6.9,0-13.1-0.8-19.6-0.5c-5.3,0.2-9.9,0.3-13.9,0.3
		c-45.1-0.1-79.3,0-102.6,0.2c-4.8,0-10.5,0.4-17.2,1.1H43.7c-0.3,0-0.6-0.1-0.9-0.4l-21.4-22.8l-4.8-5.6c-0.3-0.3-0.4-0.7-0.4-1.1
		l0.1-468.2c0.7-1.9,2-3.5,4.1-4.9c0.1-0.1,0.2-0.1,0.2-0.2l20.3-21.2c0.6-0.6,1.3-0.9,2.1-0.9L101.9,14.9z M22.8,301.6
		c0.7,8.7,0.6,17.3-0.3,25.8L22.4,382c0,0,0,0,0,0c0,0,0,0,0,0c0,0,0.1,0,0.1-0.1l0.4-46.5l0.4,87.3c-0.5-6.5-0.8-13-0.7-19.4
		c0-0.1,0-0.2-0.1-0.3c0,0,0,0,0,0c0,0,0,0,0,0c-0.3,5.2-0.3,11.8,0.1,19.8c0.1,1.4,0.3,1.9,0.7,1.5c0,0.1,0.1,0.2,0.1,0.3
		c0.1,0.2,0,0.4-0.2,0.4c0,0,0,0-0.1,0c-1.1,0.1-2.2,0.5-3.2,1c-0.2,0.1-0.5,0.1-0.6-0.1c-0.1-0.1-0.1-0.1-0.1-0.1
		c-0.3-0.2-0.7,0-0.9,0.3c0,0,0,0,0,0c-0.8,1.7-1.2,3.1-1.2,4.2c-0.4,6.9-0.4,13.9-0.1,21c0.3,6.7,2.3,11.7,5.9,15
		c-0.9,12.4-1.1,24.6-0.7,36.4c0,0.7,0.3,1.3,0.8,1.8c15,15.7,23.7,25,26.3,27.8c1.4,1.6,2.8,2.4,4.1,2.5c3.4,0.1,11,0.2,23,0.3
		c0.5,0,0.9,0,1.4-0.1c1.9-0.4,3.3-0.5,3.9-0.5c10.8,0.3,17.7,0.5,20.7,0.5c75.9-0.1,118.6,0,128.2,0.1c20.2,0.3,63.7-1.1,89.5-0.6
		c13.3,0.2,27.1,0.2,41.2,0c6.6-0.1,15.6,0.4,23.4,0.5c14.6,0.3,24.8,0.4,30.4,0.1c0.6,0,1.1-0.4,1.6-1.1c0.6-0.8,1-1.4,1.2-1.6
		c7.3-6.9,15.3-14.9,23.8-24c1.7-1.8,2-3.3,1.1-5.3c-0.2-0.5-0.7-0.7-1.2-0.5c-0.3,0.1-0.5,0.4-0.5,0.8l-0.2,2l0-5.6
		c0.9,0.8,1.6,1,2,0.6c0.6-0.7,1-1.6,1-2.8c0.2-6.8,0.3-13.6,0.3-20.2c0-0.4-0.2-0.8-0.5-1l0,0c-0.3-0.1-0.6,0-0.7,0.3
		c0,0,0,0.1,0,0.1l-0.8,4.3c0,0.3,0,0.5,0.1,0.8c0.6,1.4,0.9,2.6,0.8,3.6c-0.5,5.3-0.5,9.1,0.2,11.4c0.1,0.4-0.1,0.8-0.4,0.9
		c-0.3,0.1-0.6,0-0.8-0.3c-0.5-0.8-0.7-2-0.7-3.5c0.2-4.2,0.3-8.1,0.4-11.6c0-0.2-0.2-0.4-0.4-0.4c-0.1,0-0.2,0-0.3,0.1
		c-0.6,0.5-0.9,1.3-0.8,2.5c-4.7-23.1-7.3-44.4-7.8-63.8c-0.5-17.4,1.3-35.3,5.6-53.7c1.3-5.6,2.6-11.3,3.9-16.9
		c0.4-1.6,0.6-3.3,0.6-4.9l0.5-16.8l0.2,1.7c0,0.3,0.2,0.5,0.5,0.4c0.1,0,0.2-0.1,0.3-0.2l0.3-0.3l0.3,6.1c0,0.1,0.1,0.2,0.3,0.2
		c0.1,0,0.1,0,0.2-0.1c0.9-1.3,1.3-3,1.4-5.2c0-1.2,0-16,0-44.2c0-4.9,1.2-9.7,0.9-15c-0.4-6.5-0.6-11.1-0.6-13.9
		c-0.3-62.1-0.3-128.5,0-199.1c0-3.4-0.7-6.4-2.2-9.1c0-1-0.1-1.8-0.4-2.1c-0.2-0.4-0.7-0.5-1.1-0.2c-0.2,0.1-0.4,0.4-0.4,0.7v17.6
		c-0.5-0.4-1.1-0.3-1.7,0.1c0-3.1-0.2-6.2-0.5-9.3c-0.4-4.2,0-7,0.4-10.9c0-0.4-0.1-0.8-0.3-1.1c-1.9-2.6-3.2-4.2-3.8-4.7
		c-6.6-5.8-12.7-12-18-18.6c-0.5-0.6-1.2-1-2-1H50.9c-0.6,0-1.3,0.3-1.7,0.8c-0.9,1-8.4,8.8-22.5,23.3c-2.7,2.8-1.6,5.7-1.8,9.3
		c0,0.3-0.2,0.5-0.5,0.5c0,0,0,0,0,0l-0.3,0c-0.4,0-0.7-0.3-0.7-0.7c0,0,0,0,0,0l0.4-11.9c0-0.2-0.1-0.3-0.3-0.3
		c-0.1,0-0.2,0.1-0.3,0.2c-1.1,2.5-1.6,5-1.7,7.4c-0.1,3.2-0.1,21.6,0,55.2c0.1,20.8,0.1,39.2,0,55.1c-0.2,52-0.1,85,0.1,99.1
		c0.4,24.5,0.6,40.3,0.5,47.6c0,0.1,0.1,0.2,0.2,0.2c0,0,0,0,0,0h0c0.1,0,0.2-0.1,0.2-0.2L22.8,301.6z M22.5,401.6
		c0.1,0,0.2-4.2,0.2-9.5c0,0,0,0,0,0c0-5.2-0.1-9.5-0.3-9.5c-0.1,0-0.2,4.2-0.2,9.5c0,0,0,0,0,0C22.2,397.4,22.3,401.6,22.5,401.6z"
		/>
	<path class="st15" d="M14.1,41.1c0,0.4,0.2,0.7,0.3,0.9c0.4,0.6,1.1,0.5,2-0.2L16.3,510c0,0.4,0.1,0.8,0.4,1.1l4.8,5.6
		c-0.4,0.1-0.9,0.4-1.3,0.9l-5.5-6.2c-0.3-0.3-0.4-0.6-0.4-1L14.1,41.1z"/>
	<path class="st16" d="M451.6,392.1l0-273.5l0-76.9c1.3,2.6,1.9,5.6,1.9,9.2c0,83.3-0.1,160.8-0.2,232.6c0,26.9,0.5,63.3,0,91.1
		C453.3,379.1,452.7,385,451.6,392.1z"/>
	<path class="st15" d="M451.6,118.6l0,273.5l0.2,77.2l0,41.8c0,0.9-0.3,1.7-0.9,2.4l-26.4,27.2c-0.4,0.4-0.9,0.6-1.5,0.6l-51.6,0.1
		c1.8-1.4,5-1.8,9.4-1.4l41.1-0.1c0.6,0,1.1-0.2,1.5-0.7l26-26.9c0.5-0.5,0.8-1.2,0.7-1.9l-0.5-48.2l0-45.7l-0.1-299.7l0.3,2.1
		c0,0,0.1,0.1,0.1,0.1c0,0,0,0,0,0c0.1-0.1,0.1-0.2,0.2-0.3c0-0.1,0.1-0.1,0.2,0.1c0.1,0.1,0.2,0.2,0.3,0.3c0.1,0.2,0.4,0.2,0.5,0
		c0,0,0,0,0.1-0.1L451.6,118.6z"/>
	<path class="st17" d="M449.7,416.5l0,45.7c-2-2.7-3.1-5.8-3.4-9.2c0-0.3,0-0.7,0-1c0.9-5.8,1.2-11.2,0.9-16.2
		c-0.7-11.4-1.1-21.4-1.2-30.2c0-0.3,0.2-0.5,0.5-0.5h0.3c0.1,0,0.2,0.1,0.2,0.2L449.7,416.5z"/>
	<path class="st13" d="M21.5,516.7l21.4,22.8c0.2,0.2,0.5,0.4,0.9,0.4H96c2.8,0,3.8,0.4,2.9,1.4l-55.4,0c-0.6,0-1.1-0.2-1.5-0.7
		l-21.8-23.1C20.6,517.1,21,516.8,21.5,516.7z"/>
	<path class="st17" d="M380.8,539.9c-4.4-0.4-7.5,0-9.4,1.4c-1.4-0.1-2.9-0.2-4.6-0.4c-1.6-0.2-3.2-0.2-4.6-0.1
		c-6,0.3-11.2,0.5-15.7,0.5c-15.4,0-27.6,0.7-45,0.2c-17.6-0.5-37.7,0.3-53.6,0.1c-17.6-0.2-33.3-0.3-47-0.1
		c-31.1,0.4-48.8,0.4-53.2,0.2c-12.4-0.7-25.3-1.1-38.8-1.1c-3.3,0-6.7,0.7-10.2,0.8c0.9-1,0-1.5-2.9-1.4c6.7-0.7,12.4-1.1,17.2-1.1
		c23.3-0.2,57.5-0.3,102.6-0.2c4,0,8.6-0.1,13.9-0.3c6.5-0.3,12.7,0.5,19.6,0.5c36.6,0.2,76.2,0.3,118.9,0.4
		C370.3,539.2,374.6,539.4,380.8,539.9z"/>
</g>
<g>
	<path class="st18" d="M440.7,65.6c-0.7,0.3-1.4,0.2-2-0.4c-0.2-0.2-0.4-0.5-0.4-0.9V45.9c0-0.9-0.4-1.8-1-2.4
		c-2.5-2.5-5.2-5.1-8.1-7.7c-4.4-3.9-7.3-8.2-10.9-12.3c-0.7-0.7-1.6-1.2-2.6-1.1c-12.7,0.3-24.3,0.4-34.8,0.3
		c-117.5-0.4-225.1-0.4-322.7-0.1c-2.8,0-5.1-0.3-6.9-0.8c-0.5-0.2-1.1,0-1.4,0.4l-22.3,23c-0.6,0.6-0.9,1.4-0.9,2.2l-0.3,9.1
		c0,0.3-0.2,0.6-0.5,0.6c-0.4,0.1-0.7-0.1-0.7-0.4c-0.1-0.5-0.6-0.7-1.1-0.6c-0.3,0.1-0.6,0.4-0.6,0.8c-0.3,2.7-0.3,5.2-0.2,7.4
		c0.1,2.2,0.2,4.7,0.3,7.5c0.3,29.6-0.4,53.9-0.1,84.6c0.4,39,0.2,80.2-0.7,123.6c-0.1,5.5,0.1,10.8,0.6,15.8
		c0.1,1.2-0.1,3.1-0.6,5.7l-0.3,3.8c0,0.1-0.1,0.2-0.2,0.2h0c-0.1,0-0.2-0.1-0.2-0.2l0,0c0.1-7.2-0.1-23.1-0.5-47.6
		c-0.2-14-0.3-47.1-0.1-99.1c0-16,0-34.4,0-55.1c-0.1-33.6-0.1-52,0-55.2c0.1-2.4,0.7-4.9,1.7-7.4c0.1-0.2,0.2-0.2,0.4-0.2
		c0.1,0.1,0.2,0.2,0.2,0.3l-0.4,11.9c0,0.4,0.3,0.7,0.6,0.7c0,0,0,0,0,0l0.3,0c0.3,0,0.5-0.2,0.5-0.5c0,0,0,0,0,0
		c0.1-3.6-1-6.4,1.8-9.3c14.1-14.5,21.6-22.3,22.5-23.3c0.4-0.5,1.1-0.8,1.7-0.8h365.6c0.8,0,1.5,0.4,2,1c5.4,6.6,11.4,12.8,18,18.6
		c0.6,0.5,1.8,2,3.8,4.7c0.2,0.3,0.4,0.7,0.3,1.1c-0.5,3.9-0.9,6.7-0.4,10.9C440.4,59.4,440.6,62.5,440.7,65.6z"/>
	<path class="st19" d="M440.7,65.6c0.6-0.5,1.2-0.5,1.7-0.1c0.1,14.7,0.2,29.3,0.1,44c0,12.1,0.7,28.1,0.2,39.2
		c-0.2,5.6,0.6,10.8,0.2,16.8c-0.2,3.3-0.3,7.5-0.2,12.6c0.3,16.3,0.3,34.1-0.1,53.2c0,0.3,0,0.7,0.2,1c0.3,0.8,0.3,1.7,0.2,3
		c0,0,0,0,0,0c0,0,0,0,0,0c0-0.1,0.1-0.2,0.2-0.3c0.5-0.6,0.7-1.2,0.7-2c0-61.1,0.1-122.2,0.3-183.3c1.5,2.6,2.2,5.7,2.2,9.1
		c-0.3,70.6-0.3,137,0,199.1c0,2.8,0.2,7.4,0.6,13.9c0.3,5.4-0.9,10.1-0.9,15c0,28.2,0,42.9,0,44.2c0,2.2-0.5,3.9-1.4,5.2
		c-0.1,0.1-0.2,0.1-0.4,0.1c-0.1,0-0.1-0.1-0.1-0.2l-0.3-6.1l-0.3-42.8c0-0.1,0-0.1-0.1-0.1l-0.5,0c-0.1,0-0.1,0.1-0.1,0.1v0
		l-0.2,41.2l-0.5,16.8c0,1.7-0.3,3.3-0.6,4.9c-1.3,5.6-2.6,11.3-3.9,16.9c-4.2,18.4-6.1,36.3-5.6,53.7c0.6,19.4,3.2,40.7,7.8,63.8
		c-0.3,3.3-0.4,6.7-0.3,10c0.1,2.6,0.4,4.4,1,5.3l0,5.6c0,0.9-0.2,1.6-0.6,2c-8,8.7-16.2,17.2-24.7,25.5c-0.4,0.4-0.9,0.6-1.5,0.6
		l-27.8-0.5c-8-0.5-16-0.7-24.1-0.6c-13.8,0.1-20.8,0.1-20.9,0.1c-42.4-0.4-83.4-0.5-123-0.5c-30.5,0-64.4-0.6-96,0.1
		c-0.8,0-7.7,0-20.5,0c-11,0-18.1,0.2-21.2,0.6c-7.2,1-15,0.7-27.5,0.7c-0.7,0-1.4-0.3-1.9-0.8L24.3,505c-0.8-0.8-1.2-2-1.1-3.2
		c0.3-3.9,0.4-8.6,0.2-14c-0.1-3.4-0.1-5.9,0-7.5c0.4-4.3,0.2-8.9-0.6-13.8c-3.6-3.3-5.6-8.3-5.9-15c-0.3-7.1-0.3-14.1,0.1-21
		c0.1-1.1,0.5-2.5,1.2-4.2c0.2-0.4,0.6-0.5,0.9-0.4c0,0,0,0,0,0c0,0,0.1,0,0.1,0.1c0.2,0.2,0.4,0.2,0.6,0.1c1-0.6,2-0.9,3.2-1
		c0.2,0,0.3-0.2,0.3-0.4c0,0,0,0,0-0.1c0-0.1-0.1-0.2-0.1-0.3l0.1-1.6l-0.4-87.3l-0.4-8.1c0.9-8.5,1.1-17.2,0.3-25.8
		c0.6-2.6,0.8-4.5,0.6-5.7c-0.5-5-0.7-10.3-0.6-15.8c0.9-43.4,1.1-84.6,0.7-123.6c-0.3-30.7,0.3-55,0.1-84.6c0-2.7-0.1-5.2-0.3-7.5
		c-0.2-2.2-0.1-4.7,0.2-7.4c0-0.5,0.5-0.8,0.9-0.8c0.4,0,0.6,0.3,0.7,0.6c0.1,0.3,0.3,0.5,0.7,0.4c0.3,0,0.5-0.3,0.5-0.6l0.3-9.1
		c0-0.8,0.4-1.6,0.9-2.2l22.3-23c0.4-0.4,0.9-0.5,1.4-0.4c1.8,0.6,4.1,0.8,6.9,0.8c97.6-0.4,205.2-0.4,322.7,0.1
		c10.5,0,22.1-0.1,34.8-0.3c1,0,1.9,0.4,2.6,1.1c3.6,4,6.6,8.3,10.9,12.3c2.9,2.6,5.7,5.2,8.1,7.7c0.6,0.6,1,1.5,1,2.4v18.4
		c0,0.3,0.1,0.6,0.4,0.9C439.3,65.8,440,66,440.7,65.6z M89.5,34.2c0-0.5-0.4-1-1-1c0,0,0,0,0,0L67,33.5c-0.5,0-0.9,0.4-0.9,1l0,0
		c0,0.5,0.4,1,1,1c0,0,0,0,0,0l21.6-0.2C89,35.2,89.5,34.8,89.5,34.2L89.5,34.2z M401.4,35.1l0-1.4c0-0.2-0.1-0.3-0.3-0.3
		c0,0,0,0,0,0l-21.4-0.3c-5.1-0.1-9.2,0.1-9.3,0.4l0,1c-0.1,0.3,4,0.6,9.1,0.7c0.1,0,0.1,0,0.2,0l21.4,0.3
		C401.2,35.4,401.4,35.3,401.4,35.1z M375.3,136.6c0.2-0.1,0.4-0.3,0.3-0.6c0-0.1-0.2-0.3-0.3-0.3c-4.1-1.2-8-1.8-12-1.8
		c-31.6,0.1-63.3-0.6-96.4,0c-17.8,0.3-38.9,0.4-63.5,0.2c-6.1,0-13.1-0.6-18.8-0.5c-13.5,0.1-26.7,0.2-39.5,0.2
		c-20.6,0.1-41-0.8-63.3-0.7c-3.2,0-6,0.4-8.4,1.2c-0.3,0.1-0.5,0.5-0.4,0.8c0,0.1,0.1,0.2,0.2,0.3c1.4,1.2,5.4,1.4,7.1,1.4
		c13.2,0.2,38.4-1,56.8-0.4c13.6,0.4,29.4-0.1,45.3,0.5c3.6,0.1,9.7,0.1,18.2-0.1c6-0.2,15.2,0,27.9,0.5c7.3,0.3,18-0.1,31.9-1.2
		c8.8-0.7,21,0.7,30.5,0.8c20.8,0.2,45.8,0.7,74.8,1.4C369.2,138.4,372.4,137.8,375.3,136.6z M55.7,217.9c6.4,1,10.6,1.5,12.4,1.5
		c17.2,0.2,30.7,0.3,40.4,0.3c8.3-0.1,20.4,1,30.8,0.7c13-0.3,29.9,0,39.3,0c58.1-0.1,109.4,0,153.8,0.4c2.1,0,9.8,0,22.9-0.2
		c11.7-0.1,24,0.6,36.3-1c0.4-0.1,0.7-0.5,0.6-0.9c0-0.3-0.3-0.6-0.6-0.6c-10-1.6-20-1.2-36.3-1.5c-8.9-0.2-45.9-0.2-111-0.1
		c-48.1,0.1-87.2-0.6-135.6-0.8c-17.2-0.1-35.5,1.6-53,1.2c-0.1,0-0.3,0.1-0.3,0.2c0,0.2,0,0.3,0,0.4
		C55.3,217.6,55.5,217.8,55.7,217.9z M397.8,234.2c1.3-0.2,2.2-0.6,3-1.3c0.3-0.3,0.3-0.7,0-1c-0.1-0.1-0.3-0.2-0.5-0.2l-325.9-0.4
		l-20.5,0.1c-0.2,0-0.3,0.2-0.3,0.4l0,0.4c0,0.3,0.2,0.6,0.5,0.6c0,0,0,0,0,0l39.8,1.3c0.1,0,0.1,0.1,0.1,0.1c0,0,0,0,0,0l-1.4,2.4
		c-0.1,0.2-0.3,0.3-0.5,0.3c-12.5-0.5-24.6-0.3-36.2,0.5c-0.3,0-0.5,0.2-0.5,0.5l0,0.3c0,0.5,0.4,1,0.9,1c0,0,0,0,0,0
		c6.6,0.3,13.3,0.3,20,0c6.6-0.3,16.6,1.1,24.3,1.3c36.6,0.8,62.2,0.1,113.5-1c7.5-0.2,18.8,0.5,28.2,0.2
		c14.2-0.4,26.3-0.4,36.3,0.1c26.9,1.1,37.8,0.7,64.9,1.4c8.9,0.2,17.3-1.1,25.1-3.9c1.9-0.7,3.9-0.8,5.9-0.5
		c7.2,1.3,14.1,2.9,22.5,2c0.7-0.1,1.3-0.8,1.2-1.5c0-0.1,0-0.2-0.1-0.3c0-0.1-0.3-0.4-0.7-0.8c-0.4-0.3-0.4-0.8-0.1-1.2
		L397.8,234.2z M119.8,313.6c-13.8-0.2-27.6-0.4-41.3-0.7c-2.4-0.1-7,0.2-13.8,0.8L53.9,314c-1,0-1.8,0.9-1.8,1.9
		c0,0.5,0.3,1.1,0.7,1.4c2.9,2.5,6.6,3.7,11.1,3.8c10.9,0.3,22.6,0.6,35,0.9c2.5,0.1,8.4-0.4,17.5-1.5c0.4,0,0.8-0.1,1.2-0.3
		c2.2-0.9,4-1.2,5.4-0.9c6.1,1.4,11.6,2.1,16.6,2.1c32.9-0.1,50.5-0.1,52.9,0c39.7,0.5,69.5,0.6,89.3,0.1c11-0.3,23.3,0.5,35,0.1
		c1.7-0.1,2.9-0.3,3.7-0.6c0.3-0.1,0.4-0.5,0.3-0.8c-0.1-0.2-0.2-0.3-0.4-0.3l-14.8-2.2c-0.1,0-0.2-0.2-0.2-0.3
		c0-0.1,0.1-0.2,0.2-0.2c2.6-0.4,4.7-0.6,6.5-0.6c11.2-0.1,21.1-0.3,29.6-0.6c2.2-0.1,4.2-0.4,5.9-1c0.2-0.1,0.4-0.3,0.3-0.6
		c-0.1-0.2-0.2-0.3-0.4-0.3c-7-0.8-14.7-1.2-23-1.2c-68.4-0.6-131-0.7-188-0.2C133.4,312.9,127.9,313.1,119.8,313.6z M328.6,336.1
		l80.3-0.8c0.1,0,0.2-0.1,0.2-0.1c0.2-0.4,0.1-0.7-0.2-1.1c-0.1-0.1-0.2-0.2-0.4-0.2c-31.1-1.4-60-1.2-94.5-1.8
		c-7.2-0.1-24-0.1-50.2,0.1c-3.1,0-7.4,0-12.8-0.2c-26.1-0.6-51.7-0.2-74-0.2c-2.9,0-5.9,0.1-8.8,0.3L97.8,332
		c-6.6-0.2-13.8,0.5-20.3-0.6c-0.3,0-0.6-0.1-0.8-0.1c-7.1,0.2-16.3,0.4-27.4,0.9c-0.7,0-2.1,0.7-4.1,1.9c-0.2,0.1-0.3,0.4-0.2,0.7
		c0,0,0,0.1,0.1,0.1l1,1c0.3,0.3,0.7,0.5,1.1,0.6c32.2,6.9,64.2,7.2,100.9,8.6c9.3,0.4,23.5,0.2,42.6-0.3c37-1.1,59.8-2,68.3-2.4
		C276.9,341.3,300.1,339.3,328.6,336.1z"/>
	<path class="st15" d="M444.1,49.6c-0.2,61.1-0.2,122.2-0.3,183.3c0,0.8-0.2,1.4-0.7,2c-0.1,0.1-0.1,0.2-0.2,0.3c0,0,0,0,0,0
		c0,0,0,0,0,0c0.1-1.2,0-2.2-0.2-3c-0.1-0.3-0.2-0.7-0.2-1c0.4-19.1,0.5-36.8,0.1-53.2c-0.1-5.1,0-9.3,0.2-12.6
		c0.4-6-0.4-11.1-0.2-16.8c0.5-11.1-0.2-27.1-0.2-39.2c0-14.7,0-29.3-0.1-44V47.9c0-0.4,0.3-0.8,0.8-0.8c0.3,0,0.5,0.1,0.6,0.4
		C444,47.8,444.1,48.5,444.1,49.6z"/>
	<path class="st18" d="M443.9,329.8l-0.3,0.3c-0.2,0.2-0.4,0.2-0.6,0.1c-0.1-0.1-0.2-0.2-0.2-0.3l-0.2-1.7l0.2-41.2
		c0-0.1,0.1-0.1,0.1-0.1c0,0,0,0,0,0l0.5,0c0.1,0,0.1,0.1,0.1,0.1L443.9,329.8z"/>
	<path class="st18" d="M22.5,327.4l0.4,8.1L22.5,382c0,0,0,0.1-0.1,0.1c0,0,0,0,0,0c0,0,0,0,0,0L22.5,327.4z"/>
	
		<ellipse transform="matrix(1 -1.690943e-03 1.690943e-03 1 -0.6631 3.854673e-02)" class="st18" cx="22.5" cy="392.1" rx="0.2" ry="9.5"/>
	<path class="st18" d="M23.3,422.8l-0.1,1.6c-0.4,0.4-0.7-0.1-0.7-1.5c-0.3-8-0.3-14.6-0.1-19.8c0,0,0,0,0,0c0,0,0,0,0,0
		c0,0,0,0,0,0c0.1,0.1,0.1,0.2,0.1,0.3C22.5,409.8,22.7,416.3,23.3,422.8z"/>
	<path class="st17" d="M22.8,466.6c0.8,4.9,1,9.4,0.6,13.8c-0.1,1.6-0.2,4.1,0,7.5c0.2,5.4,0.1,10.1-0.2,14
		c-0.1,1.2,0.3,2.3,1.1,3.2L51,532.6c0.5,0.5,1.2,0.8,1.9,0.8c12.5,0,20.2,0.3,27.5-0.7c3.1-0.4,10.2-0.6,21.2-0.6
		c12.9,0.1,19.7,0.1,20.5,0c31.6-0.7,65.5-0.1,96-0.1c39.6,0,80.6,0.2,123,0.5c0.1,0,7.1,0,20.9-0.1c8-0.1,16,0.2,24.1,0.6
		c-0.7,0.5-1.3,1.1-1.8,1.9c-7.8-0.1-16.8-0.6-23.4-0.5c-14.1,0.2-27.9,0.2-41.2,0c-25.7-0.4-69.3,0.9-89.5,0.6
		c-9.5-0.1-52.3-0.1-128.2-0.1c-3,0-9.9-0.2-20.7-0.5c-0.7,0-2,0.2-3.9,0.5c-0.4,0.1-0.9,0.1-1.4,0.1c-11.9-0.1-19.6-0.2-23-0.3
		c-1.3,0-2.6-0.9-4.1-2.5c-2.5-2.8-11.3-12.1-26.3-27.8c-0.5-0.5-0.7-1.1-0.8-1.8C21.6,491.1,21.8,479,22.8,466.6z"/>
	<path class="st18" d="M440.6,499.8c-0.6-0.9-1-2.7-1-5.3c-0.1-3.4,0-6.7,0.3-10c0-1.2,0.2-2,0.8-2.5c0.2-0.1,0.4-0.1,0.6,0.1
		c0.1,0.1,0.1,0.2,0.1,0.3c-0.1,3.6-0.2,7.4-0.4,11.6c-0.1,1.6,0.1,2.7,0.7,3.5c0.2,0.3,0.6,0.4,0.9,0.2c0.3-0.2,0.4-0.5,0.3-0.8
		c-0.6-2.3-0.7-6.1-0.2-11.4c0.1-1-0.2-2.2-0.8-3.6c-0.1-0.2-0.1-0.5-0.1-0.8l0.8-4.3c0.1-0.3,0.3-0.5,0.6-0.4c0,0,0.1,0,0.1,0l0,0
		c0.3,0.2,0.5,0.6,0.5,1c0,6.7-0.1,13.4-0.3,20.2c0,1.1-0.4,2.1-1,2.8C442.2,500.8,441.6,500.6,440.6,499.8z"/>
	<path class="st18" d="M384.4,535c0.5-0.8,1.1-1.4,1.8-1.9l27.8,0.5c0.5,0,1.1-0.2,1.5-0.6c8.5-8.3,16.7-16.8,24.7-25.5
		c0.4-0.4,0.5-1.1,0.6-2l0.2-2c0-0.5,0.5-0.9,0.9-0.9c0.3,0,0.6,0.2,0.8,0.6c0.9,2.1,0.6,3.6-1.1,5.3c-8.6,9-16.5,17-23.8,24
		c-0.3,0.2-0.7,0.8-1.2,1.6c-0.5,0.7-1,1.1-1.6,1.1C409.1,535.3,399,535.3,384.4,535z"/>
</g>
<g>
	<path class="st17" d="M67,33.5l21.6-0.2c0.5,0,1,0.4,1,1l0,0c0,0.5-0.4,1-0.9,1L67,35.5c-0.5,0-1-0.4-1-1l0,0
		C66,33.9,66.4,33.5,67,33.5z"/>
	<path class="st17" d="M401.4,35.1c0,0.2-0.1,0.3-0.3,0.3l-21.4-0.3c-5.1-0.1-9.3-0.4-9.3-0.6c0,0,0,0,0,0l0-1
		c0.1-0.3,4.2-0.5,9.3-0.4l21.4,0.3c0.2,0,0.3,0.1,0.3,0.3c0,0,0,0,0,0L401.4,35.1z"/>
	<path class="st14" d="M375.3,136.6c-3,1.2-6.2,1.7-9.6,1.7c-29.1-0.7-54-1.2-74.8-1.4c-9.5-0.1-21.6-1.5-30.5-0.8
		c-14,1.1-24.6,1.5-31.9,1.2c-12.6-0.5-21.9-0.7-27.9-0.5c-8.5,0.2-14.5,0.2-18.2,0.1c-15.9-0.5-31.7,0-45.3-0.5
		c-18.4-0.6-43.6,0.7-56.8,0.4c-1.6,0-5.6-0.2-7.1-1.4c-0.3-0.2-0.3-0.6-0.1-0.9c0.1-0.1,0.2-0.2,0.3-0.2c2.4-0.8,5.2-1.2,8.4-1.2
		c22.2,0,42.7,0.8,63.3,0.7c12.8,0,26-0.1,39.5-0.2c5.7-0.1,12.7,0.5,18.8,0.5c24.5,0.2,45.7,0.1,63.5-0.2c33.1-0.6,64.8,0.1,96.4,0
		c3.9,0,7.9,0.6,12,1.8c0.2,0.1,0.4,0.3,0.3,0.5C375.6,136.5,375.5,136.6,375.3,136.6z"/>
	<path class="st17" d="M55.3,217.4c0-0.1,0-0.2,0-0.4c0-0.1,0.2-0.2,0.3-0.2c17.5,0.5,35.8-1.3,53-1.2c48.5,0.3,87.5,0.9,135.6,0.8
		c65.2-0.1,102.2,0,111,0.1c16.2,0.3,26.3-0.1,36.3,1.5c0.4,0.1,0.7,0.5,0.6,0.9c-0.1,0.3-0.3,0.5-0.6,0.6
		c-12.4,1.6-24.6,0.9-36.3,1c-13.1,0.1-20.7,0.2-22.9,0.2c-44.4-0.4-95.7-0.6-153.8-0.4c-9.5,0-26.3-0.3-39.3,0
		c-10.4,0.3-22.4-0.8-30.8-0.7c-9.7,0.1-23.2,0-40.4-0.3c-1.8,0-5.9-0.5-12.4-1.5C55.5,217.8,55.3,217.6,55.3,217.4z"/>
	<path class="st14" d="M74.4,231.2l-9.7,0.4c-0.1,0-0.1,0-0.1,0.1l0,0.3c0,0.2,0.1,0.4,0.3,0.4c0,0,0,0,0,0
		c19.8,0.5,39.6,0.8,59.4,0.9c56.9,0.4,98,0.5,123.1,0.4c3.7,0,7.4,0,11.1,0c43.8,0.1,77.8,0.3,102,0.5c17.2,0.2,29.6,0.1,37.2-0.1
		l-0.5,0.7c-0.3,0.4-0.2,0.9,0.1,1.2c0.4,0.4,0.7,0.6,0.7,0.8c0.2,0.7-0.2,1.5-0.9,1.7c-0.1,0-0.2,0-0.3,0.1
		c-8.4,0.9-15.3-0.8-22.5-2c-2-0.3-4-0.2-5.9,0.5c-7.9,2.8-16.2,4.1-25.1,3.9c-27.1-0.7-38-0.2-64.9-1.4c-10-0.4-22.1-0.4-36.3-0.1
		c-9.4,0.3-20.6-0.4-28.2-0.2c-51.3,1-76.9,1.7-113.5,1c-7.7-0.2-17.7-1.6-24.3-1.3c-6.7,0.3-13.4,0.3-20,0c-0.5,0-0.9-0.5-0.9-1
		c0,0,0,0,0,0l0-0.3c0-0.3,0.2-0.5,0.5-0.5c11.6-0.8,23.7-1,36.2-0.5c0.2,0,0.4-0.1,0.5-0.3L94,234c0-0.1,0-0.1,0-0.2c0,0,0,0,0,0
		l-39.8-1.3c-0.3,0-0.5-0.3-0.5-0.6c0,0,0,0,0,0l0-0.4c0-0.2,0.2-0.4,0.3-0.4L74.4,231.2z"/>
	<path class="st17" d="M397.8,234.2c-7.6,0.2-20,0.2-37.2,0.1c-24.2-0.2-58.2-0.4-102-0.5c-3.7,0-7.4,0-11.1,0
		c-25.1,0.2-66.2,0-123.1-0.4c-19.8-0.2-39.6-0.5-59.4-0.9c-0.2,0-0.3-0.2-0.3-0.4c0,0,0,0,0,0l0-0.3c0-0.1,0.1-0.1,0.1-0.1l9.7-0.4
		l325.9,0.4c0.4,0,0.7,0.3,0.7,0.7c0,0.2-0.1,0.4-0.2,0.5C400,233.5,399.1,233.9,397.8,234.2z"/>
	<path class="st14" d="M64.6,313.8l-11.1,1.1c-0.1,0-0.2,0.1-0.2,0.2c0,0.1,0.1,0.2,0.2,0.2c0,0,0,0,0,0c2.2,0.3,4,0.5,5.5,0.5
		c5.7,0.1,22.7,0.1,51,0c19.1-0.1,33.9,0.6,50.5-0.3c0.3,0,0.5-0.2,0.5-0.5l0-0.4c0-0.2-0.1-0.3-0.3-0.3c0,0,0,0,0,0l-40.8-0.7
		c8.1-0.5,13.6-0.7,16.6-0.7c57-0.4,119.6-0.4,188,0.2c8.3,0.1,16,0.5,23,1.2c0.2,0,0.4,0.3,0.4,0.5c0,0.2-0.1,0.3-0.3,0.4
		c-1.7,0.6-3.6,0.9-5.9,1c-8.5,0.4-18.4,0.6-29.6,0.6c-1.8,0-4,0.2-6.5,0.6c-0.1,0-0.2,0.2-0.2,0.3c0,0.1,0.1,0.2,0.2,0.2l14.8,2.2
		c0.3,0,0.5,0.3,0.5,0.7c0,0.2-0.1,0.4-0.3,0.4c-0.8,0.4-2,0.6-3.7,0.6c-11.6,0.4-24-0.4-35-0.1c-19.8,0.5-49.6,0.5-89.3-0.1
		c-2.4,0-20,0-52.9,0c-5,0-10.5-0.7-16.6-2.1c-1.4-0.3-3.2,0-5.4,0.9c-0.4,0.2-0.8,0.3-1.2,0.3c-9.1,1-14.9,1.5-17.5,1.5
		c-12.4-0.4-24.1-0.7-35-0.9c-4.5-0.1-8.3-1.4-11.1-3.8c-0.8-0.7-0.9-1.9-0.2-2.7c0.3-0.4,0.8-0.7,1.4-0.7L64.6,313.8z"/>
	<path class="st17" d="M119.8,313.6l40.8,0.7c0.2,0,0.3,0.1,0.3,0.3c0,0,0,0,0,0l0,0.4c0,0.3-0.2,0.5-0.5,0.5
		c-16.5,0.9-31.4,0.2-50.5,0.3c-28.2,0.1-45.2,0.1-51,0c-1.5,0-3.3-0.2-5.5-0.5c-0.1,0-0.2-0.1-0.2-0.2c0-0.1,0.1-0.2,0.2-0.2
		c0,0,0,0,0,0l11.1-1.1c6.8-0.6,11.4-0.9,13.8-0.8C92.2,313.2,106,313.4,119.8,313.6z"/>
	<path class="st14" d="M97.8,332l-44.7,1.4c-0.2,0-0.3,0.2-0.4,0.4l0,0.4c0,0.4,0.3,0.7,0.6,0.7c0,0,0,0,0,0
		c10.6,0,20.4,0.8,31.7,0.8c27.3,0,54.6,0,81.9-0.1l161.6,0.6c-28.4,3.2-51.6,5.3-69.7,6.2c-8.5,0.5-31.3,1.3-68.3,2.4
		c-19.1,0.6-33.3,0.7-42.6,0.3c-36.7-1.4-68.7-1.7-100.9-8.6c-0.4-0.1-0.8-0.3-1.1-0.6l-1-1c-0.2-0.2-0.2-0.5,0-0.7
		c0,0,0.1-0.1,0.1-0.1c2.1-1.2,3.4-1.9,4.1-1.9c11.2-0.4,20.3-0.7,27.4-0.9c0.3,0,0.6,0,0.8,0.1C84,332.6,91.2,331.9,97.8,332z"/>
	<path class="st18" d="M168.2,332.3c8.3,0.8,16.7,1,25.2,0.6c0.3,0,0.5,0.2,0.5,0.5c0,0,0,0.1,0,0.1l-0.1,0.4c0,0.1-0.1,0.2-0.3,0.2
		l-26.6,1.4c-27.3,0.1-54.6,0.1-81.9,0.1c-11.3,0-21.1-0.8-31.7-0.8c-0.3,0-0.6-0.3-0.6-0.7c0,0,0,0,0,0l0-0.4
		c0-0.2,0.2-0.4,0.4-0.4l44.7-1.4L168.2,332.3z"/>
	<path class="st17" d="M328.6,336.1L167,335.5l26.6-1.4c0.1,0,0.2-0.1,0.3-0.2l0.1-0.4c0-0.3-0.1-0.5-0.4-0.5c0,0-0.1,0-0.1,0
		c-8.4,0.4-16.8,0.2-25.2-0.6c2.9-0.2,5.9-0.3,8.8-0.3c22.3,0,47.9-0.5,74,0.2c5.4,0.1,9.6,0.2,12.8,0.2c26.2-0.2,42.9-0.3,50.2-0.1
		c34.5,0.6,63.5,0.4,94.5,1.8c0.1,0,0.3,0.1,0.4,0.2c0.3,0.3,0.4,0.7,0.2,1.1c0,0.1-0.1,0.1-0.2,0.1L328.6,336.1z"/>
</g>
</svg>
